<svg xmlns="http://www.w3.org/2000/svg" width="572" height="92"><path fill="#FFF" d="M.181 5.36h32.896v1.28l-2.56 1.024c-1.708.598-2.838 1.408-3.392 2.432-.556 1.024-.832 2.39-.832 4.096v66.816c0 1.708.276 3.053.832 4.032.554.981 1.684 1.813 3.392 2.495l2.56 1.025v1.279H.181V88.56l2.56-1.025c1.706-.596 2.836-1.407 3.392-2.432.554-1.023.832-2.388.832-4.096V14.192c0-1.706-.256-3.072-.768-4.096S4.533 8.262 2.741 7.664L.181 6.64V5.36zm138.752 76.545V44.4c0-6.228-1.43-10.794-4.288-13.696-2.86-2.9-7.318-4.352-13.376-4.352-3.67 0-7.446.918-11.328 2.752-3.884 1.836-7.488 4.332-10.816 7.488-1.28-3.498-3.158-6.08-5.632-7.744-2.476-1.664-5.76-2.496-9.856-2.496-3.926 0-7.702.982-11.328 2.944-3.628 1.964-6.848 4.352-9.664 7.168l-1.024-8.704-1.28-1.28-21.888 7.424v1.28l1.92.512c1.706.342 2.858.96 3.456 1.856.596.896.896 2.284.896 4.16v40.063c-.086 1.709-.448 3.072-1.088 4.097-.64 1.024-1.772 1.75-3.392 2.176l-1.792.513v1.279h30.08v-1.279l-1.152-.385c-2.988-.852-4.48-2.943-4.48-6.271v-42.88c2.132-1.876 4.18-3.306 6.144-4.288 1.962-.98 3.924-1.472 5.888-1.472 2.986 0 5.098.726 6.336 2.176 1.236 1.452 1.856 3.884 1.856 7.296v39.04c0 1.709-.32 3.053-.96 4.032-.64.982-1.772 1.728-3.392 2.24l-1.792.513v1.279h29.696v-1.279l-1.152-.385c-2.988-.852-4.524-2.943-4.608-6.271V48.752c0-1.792-.064-3.498-.192-5.12-.128-1.62-.406-3.114-.832-4.48 2.304-1.962 4.5-3.434 6.592-4.416 2.09-.98 4.244-1.472 6.464-1.472 2.816 0 4.864.662 6.144 1.984 1.28 1.324 1.92 3.776 1.92 7.36v39.167c0 1.709-.32 3.072-.96 4.097-.64 1.024-1.772 1.792-3.392 2.304l-1.28.385v1.279h29.568v-1.279l-1.408-.385c-3.072-.852-4.608-2.943-4.608-6.271zm111.486 0V44.4c0-6.228-1.43-10.794-4.288-13.696-2.86-2.9-7.318-4.352-13.376-4.352-3.67 0-7.446.918-11.328 2.752-3.884 1.836-7.488 4.332-10.815 7.488-1.28-3.498-3.158-6.08-5.633-7.744-2.476-1.664-5.76-2.496-9.855-2.496-3.926 0-7.702.982-11.328 2.944-3.628 1.964-6.848 4.352-9.664 7.168l-1.024-8.704-1.28-1.28-21.888 7.424v1.28l1.92.512c1.706.342 2.858.96 3.456 1.856.596.896.896 2.284.896 4.16v40.063c-.086 1.709-.448 3.072-1.088 4.097-.64 1.024-1.772 1.75-3.392 2.176l-1.792.513v1.279h30.08v-1.279l-1.152-.385c-2.988-.852-4.48-2.943-4.48-6.271v-42.88c2.132-1.876 4.18-3.306 6.144-4.288 1.962-.98 3.924-1.472 5.888-1.472 2.986 0 5.098.726 6.336 2.176 1.236 1.452 1.856 3.884 1.856 7.296v39.04c0 1.709-.32 3.053-.96 4.032-.64.982-1.772 1.728-3.392 2.24l-1.792.513v1.279h29.696v-1.279l-1.152-.385c-2.988-.852-4.523-2.943-4.607-6.271V48.752c0-1.792-.064-3.498-.192-5.12-.128-1.62-.406-3.114-.832-4.48 2.304-1.962 4.5-3.434 6.592-4.416 2.09-.98 4.244-1.472 6.464-1.472 2.816 0 4.864.662 6.145 1.984 1.28 1.324 1.92 3.776 1.92 7.36v39.167c0 1.709-.32 3.072-.96 4.097-.641 1.024-1.772 1.792-3.393 2.304l-1.279.385v1.279h29.567v-1.279l-1.407-.385c-3.075-.852-4.611-2.943-4.611-6.271zm36.542 3.967c-.64-1.024-.96-2.388-.96-4.097V45.936l.384-18.176-1.279-1.28-23.424 7.552v1.28l1.792.384c1.706.342 2.88.96 3.52 1.856s.96 2.24.96 4.032v40.064c0 1.707-.32 3.071-.96 4.096-.64 1.023-1.813 1.791-3.52 2.304l-1.792.513v1.279h29.951v-1.279l-1.279-.385c-1.623-.512-2.753-1.279-3.393-2.304zm-10.176-66.176c2.9 0 5.332-.916 7.296-2.752 1.962-1.834 2.944-4.16 2.944-6.976 0-2.9-.982-5.248-2.944-7.04-1.964-1.792-4.396-2.688-7.296-2.688-2.902 0-5.355.896-7.36 2.688-2.006 1.792-3.008 4.14-3.008 7.04 0 2.816 1.002 5.142 3.008 6.976 2.005 1.836 4.458 2.752 7.36 2.752zm83.456 62.209V45.04c0-6.314-1.517-11.008-4.544-14.08-3.03-3.072-7.36-4.608-12.992-4.608-3.67 0-7.382.854-11.136 2.56-3.756 1.708-7.126 3.884-10.112 6.528l-1.024-7.68-1.279-1.28-21.889 7.424v1.28l1.921.512c1.705.342 2.857.96 3.455 1.856.597.896.896 2.284.896 4.16v40.063c0 3.328-1.494 5.42-4.48 6.272l-1.792.513v1.279h30.08V88.56l-1.151-.385c-2.988-.852-4.48-2.943-4.48-6.271v-43.52c4.437-3.754 8.532-5.632 12.288-5.632 5.46 0 8.192 2.732 8.192 8.192v40.832c0 3.244-1.494 5.334-4.48 6.272l-1.664.513v1.279h30.208v-1.279l-1.151-.385c-3.246-.852-4.866-2.943-4.866-6.271zm63.166-42.945c2.09 3.884 3.136 8.3 3.136 13.248 0 .94-.044 1.9-.128 2.88-.086.982-.256 1.856-.512 2.624h-38.144c.084 9.216 1.728 15.853 4.928 19.903 3.2 4.055 7.956 6.08 14.271 6.08 4.267 0 7.723-.682 10.368-2.047 2.645-1.365 5.12-3.371 7.424-6.017l1.28 1.151c-2.646 4.695-6.166 8.365-10.56 11.009-4.396 2.644-9.664 3.968-15.809 3.968-6.06 0-11.436-1.302-16.128-3.904-4.694-2.602-8.364-6.336-11.008-11.199-2.646-4.864-3.968-10.666-3.968-17.408 0-6.996 1.536-12.948 4.607-17.856 3.072-4.906 7.019-8.64 11.84-11.2 4.82-2.56 9.877-3.84 15.169-3.84 5.546 0 10.281 1.132 14.208 3.392 3.926 2.262 6.934 5.334 9.026 9.216zm-14.784-3.904c-1.536-4.096-4.479-6.144-8.832-6.144-2.476 0-4.588.748-6.336 2.24-1.75 1.494-3.116 4.14-4.096 7.936-.982 3.798-1.516 9.152-1.6 16.064h21.888c.852-9.3.512-16-1.024-20.096zm86.014 46.849V45.04c0-6.314-1.517-11.008-4.544-14.08-3.03-3.072-7.36-4.608-12.992-4.608-3.67 0-7.382.854-11.136 2.56-3.756 1.708-7.126 3.884-10.112 6.528l-1.024-7.68-1.279-1.28-21.889 7.424v1.28l1.921.512c1.705.342 2.857.96 3.455 1.856.597.896.896 2.284.896 4.16v40.063c0 3.328-1.494 5.42-4.48 6.272l-1.792.513v1.279h30.08V88.56l-1.151-.385c-2.988-.852-4.48-2.943-4.48-6.271v-43.52c4.437-3.754 8.532-5.632 12.288-5.632 5.46 0 8.192 2.732 8.192 8.192v40.832c0 3.244-1.494 5.334-4.48 6.272l-1.664.513v1.279h30.208v-1.279l-1.151-.385c-3.246-.852-4.866-2.943-4.866-6.271zm44.03 2.751c-1.366.896-2.943 1.344-4.735 1.344-2.049 0-3.734-.768-5.057-2.305-1.324-1.535-1.983-3.795-1.983-6.783v-46.08h14.464v-2.56H527.02l.384-17.92h-1.28L515.627 22c-1.878 1.878-3.775 3.372-5.695 4.48-1.921 1.11-4.204 1.964-6.849 2.56l-3.072.512v1.28h8.832v43.775c0 5.975 1.515 10.326 4.544 13.057 3.028 2.73 7.274 4.096 12.736 4.096 4.267 0 7.893-.854 10.88-2.561 2.986-1.705 5.332-4.01 7.04-6.911l-1.28-1.28c-1.365 1.536-2.731 2.752-4.096 3.648zm29.952-11.583c-2.134-2.219-4.735-3.328-7.808-3.328s-5.676 1.109-7.809 3.328c-2.134 2.22-3.199 4.822-3.199 7.808 0 2.987 1.065 5.548 3.199 7.681 2.133 2.131 4.736 3.199 7.809 3.199s5.674-1.068 7.808-3.199c2.132-2.133 3.2-4.693 3.2-7.681 0-2.986-1.069-5.589-3.2-7.808z"/></svg>